<svg width="192" height="192" viewBox="0 0 192 192" fill="none" xmlns="http://www.w3.org/2000/svg">
<path d="M0 32C0 14.3269 14.3269 0 32 0H160C177.673 0 192 14.3269 192 32V160C192 177.673 177.673 192 160 192H32C14.3269 192 0 177.673 0 160V32Z" fill="#3142DD"/>
<path d="M9 41C9 23.3269 23.3269 9 41 9H151C168.673 9 183 23.3269 183 41V151C183 168.673 168.673 183 151 183H41C23.3269 183 9 168.673 9 151V41Z" fill="url(#paint0_linear_2_2)"/>
<path d="M62.16 41.968H74.96V86H62.16V41.968ZM77.648 41.968H92.624V51.76H77.648V41.968ZM77.648 60.144H90.256V69.936H77.648V60.144ZM98.139 41.968H131.867V51.056L131.355 51.76H98.139V41.968ZM97.435 76.592L113.947 54.32H129.435L105.883 86H97.435V76.592ZM116.507 76.208H131.867V86H109.211L116.507 76.208Z" fill="white"/>
<path d="M23.015 123.672H29.215V145H23.015V123.672ZM30.517 123.672H37.771V128.415H30.517V123.672ZM30.517 132.476H36.624V137.219H30.517V132.476ZM48.4166 135.204C48.4166 134.667 48.3959 134.284 48.3546 134.057C48.3133 133.83 48.1893 133.664 47.9826 133.561C47.7966 133.458 47.4453 133.385 46.9286 133.344C46.6186 133.323 45.9469 133.313 44.9136 133.313C43.9216 133.313 43.0019 133.354 42.1546 133.437L40.5116 133.53V129.5C42.4543 129.128 44.5519 128.942 46.8046 128.942C48.5406 128.942 49.8943 129.066 50.8656 129.314C51.8576 129.562 52.6016 129.955 53.0976 130.492C53.5316 130.988 53.8106 131.618 53.9346 132.383C54.0793 133.148 54.1516 134.212 54.1516 135.576V145H48.4166V135.204ZM43.8286 145.217C42.4026 145.217 41.3486 144.824 40.6666 144.039C39.9846 143.233 39.6436 142.024 39.6436 140.412C39.6436 139.42 39.7159 138.624 39.8606 138.025C40.0053 137.405 40.2533 136.919 40.6046 136.568C40.9559 136.196 41.4416 135.938 42.0616 135.793C42.6816 135.628 43.4979 135.545 44.5106 135.545L47.1146 135.607V138.366H46.8046C46.3293 138.366 46.0193 138.376 45.8746 138.397C45.4613 138.418 45.2443 138.614 45.2236 138.986C45.2029 139.11 45.1926 139.368 45.1926 139.761C45.1926 140.071 45.2029 140.309 45.2236 140.474C45.2649 140.639 45.3269 140.774 45.4096 140.877C45.5129 141.022 45.6679 141.104 45.8746 141.125C46.1639 141.166 46.4739 141.187 46.8046 141.187H47.1146V144.349C46.6599 144.7 46.1743 144.928 45.6576 145.031C45.1616 145.155 44.5519 145.217 43.8286 145.217ZM56.2514 129.19H59.1654V124.602H64.9004V129.19H68.3724V133.561H56.2514V129.19ZM59.1654 134.801H64.9004V145H59.1654V134.801ZM70.6899 121.967H76.4249V145H70.6899V121.967ZM79.6489 137.529C79.6489 136.434 79.6385 135.71 79.6179 135.359C79.5765 134.78 79.5249 134.398 79.4629 134.212C79.3802 134.005 79.2355 133.881 79.0289 133.84C78.8222 133.778 78.4915 133.747 78.0369 133.747H77.7269V129.965C78.5535 129.304 79.6075 128.973 80.8889 128.973C82.7489 128.973 83.9992 129.541 84.6399 130.678C84.9292 131.174 85.1255 131.784 85.2289 132.507C85.3322 133.21 85.3839 134.078 85.3839 135.111V145H79.6489V137.529ZM93.3475 145.217C91.4875 145.217 90.2371 144.649 89.5965 143.512C89.3071 143.016 89.1108 142.417 89.0075 141.714C88.9041 140.991 88.8525 140.112 88.8525 139.079V129.19H94.5875V136.661C94.5875 137.756 94.5978 138.48 94.6185 138.831C94.6598 139.348 94.7218 139.72 94.8045 139.947C94.8871 140.174 95.0215 140.319 95.2075 140.381C95.3935 140.422 95.7241 140.443 96.1995 140.443H96.5095V144.318C95.7035 144.917 94.6495 145.217 93.3475 145.217ZM97.8115 129.19H103.546V145H97.8115V129.19ZM114.116 130.089C114.55 129.676 115.056 129.386 115.635 129.221C116.234 129.035 116.968 128.942 117.836 128.942V134.119C116.906 134.119 116.141 134.181 115.542 134.305C114.963 134.429 114.488 134.646 114.116 134.956V130.089ZM107.079 129.19H112.814V145H107.079V129.19ZM119.875 140.877L126.447 133.561H120.247V129.19H133.577V133.313L123.099 145H119.875V140.877ZM128.741 140.629H133.639V145H124.835L128.741 140.629ZM145.642 137.126C145.642 136.072 145.632 135.369 145.611 135.018C145.59 134.522 145.528 134.15 145.425 133.902C145.322 133.633 145.156 133.468 144.929 133.406C144.681 133.344 144.34 133.313 143.906 133.313H143.472V128.942H143.906C145.704 128.942 147.109 129.087 148.122 129.376C149.135 129.645 149.889 130.099 150.385 130.74C150.84 131.319 151.129 132.094 151.253 133.065C151.398 134.016 151.47 135.369 151.47 137.126C151.47 138.759 151.418 140.03 151.315 140.939C151.232 141.828 151.015 142.561 150.664 143.14C150.271 143.781 149.682 144.266 148.897 144.597C148.112 144.907 147.027 145.103 145.642 145.186V137.126ZM143.906 145.248C142.108 145.248 140.703 145.114 139.69 144.845C138.677 144.576 137.923 144.122 137.427 143.481C136.972 142.902 136.673 142.138 136.528 141.187C136.404 140.236 136.342 138.883 136.342 137.126C136.342 135.514 136.394 134.253 136.497 133.344C136.6 132.435 136.828 131.68 137.179 131.081C137.551 130.42 138.13 129.934 138.915 129.624C139.7 129.293 140.785 129.087 142.17 129.004V137.126C142.17 138.18 142.18 138.872 142.201 139.203C142.222 139.699 142.284 140.071 142.387 140.319C142.49 140.567 142.666 140.722 142.914 140.784C143.121 140.846 143.451 140.877 143.906 140.877H144.34V145.248H143.906ZM159.042 144.907C157.182 144.907 155.932 144.339 155.291 143.202C155.002 142.706 154.806 142.107 154.702 141.404C154.599 140.681 154.547 139.802 154.547 138.769V129.19H160.282V136.351C160.282 137.446 160.293 138.17 160.313 138.521C160.355 139.058 160.417 139.43 160.499 139.637C160.582 139.864 160.716 140.009 160.902 140.071C161.088 140.112 161.419 140.133 161.894 140.133H162.204V143.977C161.378 144.597 160.324 144.907 159.042 144.907ZM161.181 151.386C160.107 151.386 158.846 151.324 157.399 151.2L155.601 151.014V147.015H159.755C160.499 147.015 161.223 146.994 161.925 146.953C162.421 146.912 162.783 146.808 163.01 146.643C163.258 146.498 163.403 146.24 163.444 145.868C163.486 145.372 163.506 144.845 163.506 144.287V129.19H169.241V143.264C169.241 144.917 169.169 146.199 169.024 147.108C168.9 148.017 168.601 148.772 168.125 149.371C167.588 150.053 166.772 150.559 165.676 150.89C164.581 151.221 163.083 151.386 161.181 151.386Z" fill="white"/>
<defs>
<linearGradient id="paint0_linear_2_2" x1="20.2778" y1="12.7593" x2="174.944" y2="178.704" gradientUnits="userSpaceOnUse">
<stop stop-color="#316BDD"/>
<stop offset="1" stop-color="#8994F3"/>
</linearGradient>
</defs>
</svg>
